<svg xmlns="http://www.w3.org/2000/svg" width="20" height="20" viewBox="0 0 20 20"><g><g><path fill="#cdd1d4" d="M10.001 0c-2.96 0-5.37 2.424-5.37 5.403 0 1.443.42 3.248 1.287 4.748.257.445.559.864.904 1.235a1.943 1.943 0 0 1-.119.497c-.058.13-.097.157-.136.172-.543.206-2.005.325-3.385.76C1.8 13.248.383 14.106.009 15.86a.461.461 0 0 0 .14.436c5.428 4.937 14.273 4.937 19.703 0a.46.46 0 0 0 .14-.436c-.375-1.753-1.792-2.611-3.173-3.046-1.38-.434-2.844-.554-3.384-.76-.073-.028-.117-.064-.177-.182a1.564 1.564 0 0 1-.126-.436c.365-.383.682-.82.95-1.285.867-1.5 1.286-3.305 1.286-4.748C15.368 2.424 12.96 0 10.001 0z"/></g></g></svg>