<svg xmlns="http://www.w3.org/2000/svg" width="20" height="20" viewBox="0 0 20 20"><g><g><path fill="#16171b" d="M20 10.015c0 5.53-4.478 10.015-10 9.984H1.073l1.534-3.256C1.012 14.96 0 12.626 0 10.015 0 4.485 4.48 0 10 0c5.522 0 10 4.485 10 10.015zM6.905 9.946c0-.832-.674-1.51-1.502-1.51-.825 0-1.5.678-1.5 1.51 0 .83.675 1.508 1.5 1.508.828 0 1.502-.677 1.502-1.508zm4.717 0c0-.832-.674-1.51-1.501-1.51-.828 0-1.5.678-1.5 1.51 0 .83.672 1.508 1.5 1.508.827 0 1.5-.677 1.5-1.508zm4.716 0c0-.832-.673-1.51-1.5-1.51s-1.5.678-1.5 1.51c0 .83.673 1.508 1.5 1.508.858 0 1.532-.677 1.5-1.508z"/></g></g></svg>