<svg xmlns="http://www.w3.org/2000/svg" width="32" height="30" viewBox="0 0 32 30"><g><g><path fill="#78b000" d="M29.346 15.829c1.401.595 2.286 1.62 1.917 2.99-.314 1.16-1.142 1.495-2.438 1.635 0 0 1.914.755 1.426 2.662-.475 1.856-2.558 1.754-2.558 1.754s1.902.922 1.165 2.767c-.54 1.352-1.664 1.886-2.79 1.894-1.592.01-10.373-.041-13.447.018-1.946.037-3.767-.294-5.449-1.238V13.423C9.65 12.02 13.566 7.996 14.3 4.949c.228-.955.47-2.348.572-3.327.095-.89.984-1.605 1.915-1.62 1.156-.021 2.064.996 2.361 2.525.751 3.868.154 6.675-.335 7.733 3.4.004 6.8.003 10.201.004.876 0 3.086.688 2.877 3.044-.192 2.158-2.332 2.501-2.544 2.521zM6.072 12.108V28.95c0 .58-.472 1.05-1.056 1.05h-3.96c-.584 0-1.057-.47-1.057-1.05V12.108c0-.58.473-1.05 1.056-1.05h3.96c.586 0 1.057.47 1.057 1.05z"/></g></g></svg>