<svg xmlns="http://www.w3.org/2000/svg" width="32" height="30" viewBox="0 0 32 30"><g><g><path fill="#cdd1d4" d="M2.653 14.17c-1.4-.593-2.285-1.62-1.916-2.988.314-1.16 1.143-1.496 2.439-1.636 0 0-1.915-.755-1.428-2.66.476-1.859 2.56-1.756 2.56-1.756s-1.904-.922-1.166-2.768C3.683 1.011 4.807.477 5.932.47 7.524.46 16.306.51 19.38.452c1.946-.038 3.767.293 5.448 1.237v14.888c-2.476 1.403-6.393 5.427-7.126 8.475-.229.954-.47 2.347-.573 3.326-.093.891-.983 1.605-1.914 1.621-1.157.02-2.064-.997-2.361-2.526-.752-3.868-.154-6.675.335-7.734-3.4-.003-6.802-.001-10.2-.003-.877 0-3.086-.687-2.878-3.044.192-2.157 2.332-2.501 2.543-2.521zm23.275 3.722V1.05c0-.58.473-1.05 1.056-1.05h3.961c.582 0 1.056.47 1.056 1.05v16.842c0 .58-.473 1.05-1.056 1.05h-3.961c-.584 0-1.056-.47-1.056-1.05z"/></g></g></svg>