<svg xmlns="http://www.w3.org/2000/svg" width="19" height="20" viewBox="0 0 19 20"><g><g><path fill="#16171b" d="M18.627 19.652a1.201 1.201 0 0 1-.841.348 1.2 1.2 0 0 1-.842-.348l-3.78-3.775a8.587 8.587 0 0 1-4.56 1.313C3.863 17.19 0 13.334 0 8.595 0 3.857 3.862 0 8.605 0c4.744 0 8.605 3.857 8.605 8.595a8.588 8.588 0 0 1-2.197 5.722l3.635 3.632c.472.471.472 1.23-.02 1.703zM8.605 14.79c3.409 0 6.181-2.79 6.181-6.195 0-3.405-2.751-6.195-6.181-6.195-3.429 0-6.202 2.79-6.202 6.195 0 3.426 2.793 6.195 6.202 6.195z"/></g></g></svg>