<svg xmlns="http://www.w3.org/2000/svg" width="26" height="20" viewBox="0 0 26 20"><g><g><path fill="#cdd1d4" d="M11.935 9.454L10.75 10.59c-.383.366-1.045.366-1.463 0a.976.976 0 0 1 0-1.435l2.962-2.802c0-.033 0-.033.034-.066h.035l.034-.034V6.22h.036a.976.976 0 0 1 1.184 0h.035v.033l.07.034.07.066 2.926 2.802a.977.977 0 0 1 0 1.435c-.418.366-1.08.366-1.463 0l-1.185-1.135v5.537c0 .534-.453 1-1.045 1-.558 0-1.045-.466-1.045-1zM19.771 20a6.284 6.284 0 0 0 4.414-1.77C25.295 17.129 26 15.617 26 13.95c0-1.641-.705-3.154-1.815-4.257a6.265 6.265 0 0 0-3.601-1.718V7.36c0-2.026-.84-3.846-2.221-5.18A7.614 7.614 0 0 0 13 0c-1.842 0-3.52.641-4.848 1.718C6.96 2.692 6.067 4 5.66 5.513a7.93 7.93 0 0 0-3.928 2.435A7.26 7.26 0 0 0 0 12.641c0 2.026.84 3.846 2.22 5.18A7.614 7.614 0 0 0 7.582 20z"/></g></g></svg>