<!-- Generated by IcoMoon.io -->
<svg version="1.1" xmlns="http://www.w3.org/2000/svg" width="20" height="20" viewBox="0 0 20 20">
<path d="M19.376 11.416h-2.112v7.919a.675.675 0 0 1-.674.665H3.33a.675.675 0 0 1-.676-.665v-7.92H.544a.534.534 0 0 1-.403-.893L9.452.233a.735.735 0 0 1 1.077 0l9.333 10.289c.316.333.063.894-.486.894zm-6.376.57a.647.647 0 0 0-.299-.54L9.055 9.084a.698.698 0 0 0-.696-.034.648.648 0 0 0-.36.575v4.724c0 .24.139.461.36.575a.702.702 0 0 0 .696-.035l3.646-2.362a.647.647 0 0 0 .299-.54z"></path>
</svg>
