<svg xmlns="http://www.w3.org/2000/svg" width="16" height="20" viewBox="0 0 16 20"><g><g><path fill="#16171b" d="M15.408 18.547c1.037-1.542.676-3.666-.803-4.744a3.167 3.167 0 0 0-2.135-.606l-.001-.002a4.743 4.743 0 0 1-3.207-.908c-.813-.592-1.743-1.618-1.743-2.288 0-.67.93-1.696 1.741-2.288.975-.71 2.11-1 3.208-.908v-.002a3.162 3.162 0 0 0 2.135-.606c1.48-1.078 1.84-3.202.804-4.743-1.036-1.54-3.076-1.916-4.557-.836a3.395 3.395 0 0 0-1.277 1.88h-.001a5.095 5.095 0 0 1-1.917 2.828 4.742 4.742 0 0 1-3.473.877v.002a3.554 3.554 0 0 0-2.612.658C-.095 8.074-.5 10.463.667 12.197c.818 1.217 2.194 1.786 3.518 1.598v.002a4.74 4.74 0 0 1 3.472.878A5.09 5.09 0 0 1 9.573 17.5h.002c.195.737.628 1.41 1.277 1.882 1.48 1.079 3.52.704 4.556-.836z"/></g></g></svg>