<svg xmlns="http://www.w3.org/2000/svg" width="20" height="20" viewBox="0 0 20 20"><g><g><path fill="#16171b" d="M0 10C0 4.477 4.476 0 10 0c5.523 0 10 4.477 10 10s-4.477 10-10 10C4.476 20 0 15.523 0 10zm8.89-4.833a1.666 1.666 0 1 0 3.33.002 1.666 1.666 0 0 0-3.33-.002zM7.221 9.832c1.112-.555 1.667-.555 1.667-.555l-.773 5.025C7.929 15.517 8.334 16.5 10 16.5c2.222 0 2.777-2.222 2.777-2.222-1.11.556-1.666.556-1.666.556l.773-5.027c.187-1.212-.218-2.196-1.884-2.196-2.222 0-2.778 2.222-2.778 2.222z"/><path fill="#fff" d="M0 10C0 4.477 4.476 0 10 0c5.523 0 10 4.477 10 10s-4.477 10-10 10C4.476 20 0 15.523 0 10zm8.89-4.833a1.666 1.666 0 1 0 3.33.002 1.666 1.666 0 0 0-3.33-.002zM7.221 9.832c1.112-.555 1.667-.555 1.667-.555l-.773 5.025C7.929 15.517 8.334 16.5 10 16.5c2.222 0 2.777-2.222 2.777-2.222-1.11.556-1.666.556-1.666.556l.773-5.027c.187-1.212-.218-2.196-1.884-2.196-2.222 0-2.778 2.222-2.778 2.222z"/></g></g></svg>