<?xml version="1.0" encoding="utf-8"?>
<!-- Generator: Adobe Illustrator 16.0.0, SVG Export Plug-In . SVG Version: 6.00 Build 0)  -->
<!DOCTYPE svg PUBLIC "-//W3C//DTD SVG 1.1//EN" "http://www.w3.org/Graphics/SVG/1.1/DTD/svg11.dtd">
<svg version="1.1" xmlns="http://www.w3.org/2000/svg" xmlns:xlink="http://www.w3.org/1999/xlink" x="0px" y="0px" width="220px"
	 height="40px" viewBox="0 0 220 40" enable-background="new 0 0 220 40" xml:space="preserve">
<g id="SoloPornoItaliani_1_" enable-background="new    ">
	<g id="SoloPornoItaliani">
		<g>
			<path fill="#16171B" d="M58.643,13.832l-3.192-0.984c-0.704-0.224-1.188-0.476-1.451-0.756c-0.264-0.279-0.396-0.764-0.396-1.452
				c0-0.832,0.184-1.355,0.552-1.572c0.367-0.216,1.104-0.323,2.208-0.323c1.456,0,3.096,0.031,4.921,0.096l0.191-2.136
				c-1.44-0.368-3.176-0.553-5.207-0.553c-2.113,0-3.589,0.289-4.428,0.865c-0.841,0.575-1.261,1.768-1.261,3.575
				c0,1.265,0.256,2.284,0.768,3.061c0.513,0.775,1.369,1.355,2.569,1.739l3.336,1.057c0.671,0.208,1.133,0.448,1.38,0.72
				c0.248,0.272,0.372,0.76,0.372,1.464c0,0.832-0.184,1.376-0.553,1.632c-0.367,0.257-1.104,0.384-2.207,0.384
				c-0.705,0-2.456-0.031-5.256-0.096l-0.192,2.208c1.76,0.352,3.552,0.528,5.376,0.528c2.191,0,3.719-0.315,4.584-0.948
				c0.864-0.632,1.295-1.86,1.295-3.684c0-1.264-0.253-2.284-0.756-3.061C60.791,14.819,59.908,14.232,58.643,13.832z
				 M68.843,10.904c-2.129,0-3.632,0.472-4.512,1.416c-0.88,0.943-1.321,2.543-1.321,4.8c0,2.256,0.441,3.852,1.321,4.787
				c0.879,0.937,2.383,1.404,4.512,1.404c2.112,0,3.604-0.468,4.476-1.404c0.871-0.936,1.308-2.531,1.308-4.787
				c0-2.257-0.437-3.856-1.308-4.8C72.447,11.376,70.955,10.904,68.843,10.904z M71.016,20.18c-0.393,0.536-1.116,0.805-2.172,0.805
				c-1.088,0-1.824-0.269-2.208-0.805c-0.384-0.536-0.576-1.556-0.576-3.06c0-1.52,0.192-2.548,0.576-3.084
				c0.384-0.536,1.12-0.805,2.208-0.805c1.057,0,1.779,0.269,2.172,0.805c0.391,0.536,0.588,1.564,0.588,3.084
				C71.604,18.624,71.407,19.644,71.016,20.18z M80.284,20.696c-0.48,0-0.837-0.112-1.068-0.337
				c-0.231-0.224-0.34-0.567-0.324-1.031V6.2h-2.927v13.848c0,1.024,0.283,1.816,0.852,2.376c0.568,0.56,1.339,0.84,2.316,0.84
				c1.12,0,1.953-0.137,2.496-0.407l-0.336-2.16H80.284z M87.544,10.904c-2.127,0-3.632,0.472-4.512,1.416
				c-0.879,0.943-1.319,2.543-1.319,4.8c0,2.256,0.44,3.852,1.319,4.787c0.88,0.937,2.385,1.404,4.512,1.404
				c2.112,0,3.604-0.468,4.476-1.404c0.873-0.936,1.309-2.531,1.309-4.787c0-2.257-0.436-3.856-1.309-4.8
				C91.148,11.376,89.656,10.904,87.544,10.904z M89.716,20.18c-0.393,0.536-1.117,0.805-2.172,0.805
				c-1.087,0-1.824-0.269-2.208-0.805c-0.385-0.536-0.576-1.556-0.576-3.06c0-1.52,0.191-2.548,0.576-3.084
				c0.384-0.536,1.12-0.805,2.208-0.805c1.055,0,1.779,0.269,2.172,0.805c0.392,0.536,0.589,1.564,0.589,3.084
				C90.305,18.624,90.108,19.644,89.716,20.18z M100.897,6.224c-2.576,0-4.576,0.072-6,0.217V23h3v-6.312
				c1.072,0.128,2.2,0.192,3.385,0.192c1.999,0,3.383-0.372,4.151-1.116c0.768-0.743,1.152-2.148,1.152-4.212
				c0-2.064-0.403-3.468-1.211-4.212C104.565,6.596,103.073,6.224,100.897,6.224z M102.985,13.819
				c-0.384,0.393-1.104,0.597-2.159,0.612h-2.929V8.696h2.929c1.056,0,1.775,0.195,2.159,0.588c0.384,0.392,0.576,1.147,0.576,2.268
				S103.369,13.429,102.985,13.819z M113.049,10.904c-2.128,0-3.632,0.472-4.513,1.416c-0.88,0.943-1.318,2.543-1.318,4.8
				c0,2.256,0.438,3.852,1.318,4.787c0.881,0.937,2.385,1.404,4.513,1.404c2.111,0,3.604-0.468,4.477-1.404
				c0.871-0.936,1.307-2.531,1.307-4.787c0-2.257-0.436-3.856-1.307-4.8C116.652,11.376,115.16,10.904,113.049,10.904z
				 M115.221,20.18c-0.393,0.536-1.116,0.805-2.172,0.805c-1.089,0-1.824-0.269-2.208-0.805s-0.576-1.556-0.576-3.06
				c0-1.52,0.192-2.548,0.576-3.084s1.119-0.805,2.208-0.805c1.056,0,1.779,0.269,2.172,0.805c0.392,0.536,0.588,1.564,0.588,3.084
				C115.809,18.624,115.612,19.644,115.221,20.18z M122.734,12.968l-0.264-1.729h-2.279V23h2.928v-8.304
				c1.76-0.704,3.057-1.056,3.889-1.056h0.84l0.312-2.736h-0.577C126.031,10.904,124.415,11.592,122.734,12.968z M136.658,10.904
				c-1.568,0-3.264,0.688-5.089,2.063l-0.192-1.729h-2.447V23h2.928v-8.185c0.896-0.512,1.629-0.88,2.196-1.104
				s1.124-0.337,1.667-0.337c0.48,0,0.809,0.117,0.984,0.349c0.178,0.232,0.265,0.677,0.265,1.332V23h2.929v-8.832
				c0-1.056-0.281-1.864-0.841-2.424C138.496,11.184,137.697,10.904,136.658,10.904z M151.531,12.32
				c-0.873-0.944-2.365-1.416-4.477-1.416c-2.129,0-3.633,0.472-4.512,1.416c-0.88,0.943-1.321,2.543-1.321,4.8
				c0,2.256,0.441,3.852,1.321,4.787c0.879,0.937,2.383,1.404,4.512,1.404c2.111,0,3.604-0.468,4.477-1.404
				c0.871-0.936,1.307-2.531,1.307-4.787C152.838,14.863,152.402,13.264,151.531,12.32z M149.227,20.18
				c-0.392,0.536-1.115,0.805-2.172,0.805c-1.089,0-1.824-0.269-2.209-0.805c-0.383-0.536-0.575-1.556-0.575-3.06
				c0-1.52,0.192-2.548,0.575-3.084c0.385-0.536,1.12-0.805,2.209-0.805c1.057,0,1.78,0.269,2.172,0.805
				c0.393,0.536,0.588,1.564,0.588,3.084C149.814,18.624,149.619,19.644,149.227,20.18z"/>
		</g>
	</g>
</g>
<g id="SoloPornoItaliani_copy_1_" enable-background="new    ">
	<g id="SoloPornoItaliani_copy">
		<g>
			<path fill="#78B000" d="M154.428,23h3V6.44h-3V23z M163.508,7.855h-2.903v3.384l-2.111,0.121v1.992h2.136v6.479
				c0,1.104,0.276,1.952,0.828,2.544s1.34,0.888,2.363,0.888c1.168,0,2.176-0.137,3.025-0.407l-0.313-2.16h-1.608
				c-0.527,0-0.896-0.1-1.104-0.301c-0.208-0.199-0.312-0.555-0.312-1.067v-5.976h3.457v-2.113h-3.457V7.855z M173.78,10.904
				c-1.855,0-3.815,0.191-5.88,0.575l0.289,2.064c2.047-0.16,3.688-0.24,4.919-0.24c0.849,0,1.417,0.112,1.705,0.337
				c0.287,0.224,0.439,0.672,0.456,1.343v0.721h-4.416c-1.104,0-1.961,0.256-2.568,0.769c-0.609,0.512-0.912,1.239-0.912,2.184v1.2
				c0,1.071,0.344,1.907,1.031,2.508c0.688,0.6,1.584,0.899,2.688,0.899c1.761,0,3.255-0.688,4.487-2.064L175.894,23h2.303v-7.992
				c0-1.52-0.354-2.584-1.068-3.192C176.416,11.208,175.301,10.904,173.78,10.904z M175.27,19.52
				c-1.137,0.929-2.289,1.392-3.457,1.392c-1.023,0-1.536-0.479-1.536-1.439v-0.456c0-0.416,0.093-0.735,0.276-0.96
				c0.184-0.224,0.508-0.344,0.973-0.36h3.744V19.52z M184.262,20.696c-0.48,0-0.837-0.112-1.068-0.337
				c-0.232-0.224-0.34-0.567-0.323-1.031V6.2h-2.929v13.848c0,1.024,0.284,1.816,0.852,2.376c0.568,0.56,1.341,0.84,2.316,0.84
				c1.119,0,1.953-0.137,2.496-0.407l-0.336-2.16H184.262z M186.377,23h2.902V11.239h-2.902V23z M196.978,10.904
				c-1.856,0-3.817,0.191-5.882,0.575l0.289,2.064c2.048-0.16,3.688-0.24,4.92-0.24c0.848,0,1.416,0.112,1.704,0.337
				c0.288,0.224,0.44,0.672,0.456,1.343v0.721h-4.416c-1.104,0-1.96,0.256-2.567,0.769c-0.608,0.512-0.913,1.239-0.913,2.184v1.2
				c0,1.071,0.345,1.907,1.032,2.508c0.687,0.6,1.585,0.899,2.688,0.899c1.76,0,3.256-0.688,4.487-2.064L199.09,23h2.303v-7.992
				c0-1.52-0.356-2.584-1.068-3.192C199.612,11.208,198.496,10.904,196.978,10.904z M198.465,19.52
				c-1.137,0.929-2.288,1.392-3.456,1.392c-1.024,0-1.536-0.479-1.536-1.439v-0.456c0-0.416,0.092-0.735,0.276-0.96
				c0.184-0.224,0.507-0.344,0.972-0.36h3.744V19.52z M210.889,10.904c-1.566,0-3.263,0.688-5.087,2.063l-0.192-1.729h-2.447V23
				h2.928v-8.185c0.896-0.512,1.627-0.88,2.196-1.104c0.567-0.224,1.123-0.337,1.668-0.337c0.479,0,0.807,0.117,0.983,0.349
				c0.176,0.232,0.265,0.677,0.265,1.332V23h2.927v-8.832c0-1.056-0.279-1.864-0.84-2.424
				C212.73,11.184,211.929,10.904,210.889,10.904z M215.941,11.239V23h2.904V11.239H215.941z"/>
		</g>
	</g>
</g>
<g id="Rounded_Rectangle_1_1_" enable-background="new    ">
	<g id="Rounded_Rectangle_1">
		<g>
			<path fill="#F9001D" d="M188,6h-1c-0.553,0-1,0.447-1,1v1c0,0.553,0.447,1,1,1h1c0.553,0,1-0.447,1-1V7
				C189,6.447,188.553,6,188,6z"/>
		</g>
	</g>
</g>
<g id="Rounded_Rectangle_1_copy_1_" enable-background="new    ">
	<g id="Rounded_Rectangle_1_copy">
		<g>
			<path fill="#F9001D" d="M218,6h-1c-0.553,0-1,0.447-1,1v1c0,0.553,0.447,1,1,1h1c0.553,0,1-0.447,1-1V7
				C219,6.447,218.553,6,218,6z"/>
		</g>
	</g>
</g>
<g id="solopornoitaliani.xxx_1_" enable-background="new    ">
	<g id="solopornoitaliani.xxx">
		<g>
			<path fill="#8B8FA1" d="M54.312,31.063l-1.518-0.374c-0.176-0.052-0.29-0.087-0.341-0.104c-0.052-0.019-0.123-0.054-0.215-0.104
				c-0.092-0.052-0.148-0.116-0.17-0.193c-0.022-0.076-0.033-0.178-0.033-0.302c0-0.271,0.079-0.438,0.237-0.501
				s0.497-0.094,1.018-0.094c0.234,0,0.913,0.019,2.035,0.056l0.088-0.771c-0.667-0.109-1.43-0.172-2.288-0.187
				c-0.777-0.008-1.326,0.092-1.645,0.297c-0.319,0.205-0.479,0.604-0.479,1.199c0,0.439,0.091,0.775,0.275,1.006
				c0.183,0.231,0.499,0.405,0.946,0.522l1.496,0.374c0.184,0.044,0.303,0.075,0.357,0.094c0.055,0.019,0.13,0.054,0.226,0.104
				c0.095,0.052,0.158,0.115,0.187,0.192s0.044,0.175,0.044,0.292c0,0.271-0.103,0.449-0.308,0.533
				c-0.206,0.084-0.609,0.127-1.21,0.127c-0.814,0-1.426-0.019-1.837-0.056L51.1,33.967c0.674,0.103,1.386,0.154,2.134,0.154
				c0.858,0,1.461-0.101,1.81-0.303c0.348-0.201,0.522-0.617,0.522-1.248c0-0.455-0.095-0.79-0.286-1.007
				C55.089,31.348,54.767,31.181,54.312,31.063z M62.347,28.489c-0.931,0-1.591,0.216-1.98,0.648s-0.583,1.163-0.583,2.189
				s0.194,1.753,0.583,2.178c0.389,0.426,1.049,0.638,1.98,0.638c0.932,0,1.591-0.212,1.98-0.638
				c0.388-0.425,0.583-1.151,0.583-2.178s-0.194-1.757-0.583-2.189C63.938,28.705,63.279,28.489,62.347,28.489z M63.491,32.845
				c-0.205,0.271-0.586,0.407-1.144,0.407c-0.557,0-0.938-0.136-1.144-0.407c-0.206-0.271-0.308-0.777-0.308-1.518
				c0-0.748,0.103-1.258,0.308-1.529c0.205-0.271,0.586-0.407,1.144-0.407c0.558,0,0.939,0.136,1.144,0.407
				c0.206,0.271,0.308,0.781,0.308,1.529C63.799,32.067,63.697,32.574,63.491,32.845z M71.158,33.131
				c-0.234,0-0.411-0.057-0.528-0.17c-0.117-0.114-0.172-0.284-0.165-0.512V26.3h-1.067v6.392c0,0.447,0.121,0.794,0.363,1.039
				c0.242,0.246,0.572,0.368,0.99,0.368c0.469,0,0.81-0.048,1.023-0.143l-0.121-0.825H71.158z M78.198,28.489
				c-0.931,0-1.591,0.216-1.98,0.648s-0.583,1.163-0.583,2.189s0.194,1.753,0.583,2.178c0.389,0.426,1.049,0.638,1.98,0.638
				s1.591-0.212,1.98-0.638c0.389-0.425,0.583-1.151,0.583-2.178s-0.194-1.757-0.583-2.189S79.129,28.489,78.198,28.489z
				 M79.342,32.845c-0.205,0.271-0.587,0.407-1.144,0.407s-0.938-0.136-1.144-0.407c-0.205-0.271-0.308-0.777-0.308-1.518
				c0-0.748,0.103-1.258,0.308-1.529c0.206-0.271,0.587-0.407,1.144-0.407s0.939,0.136,1.144,0.407s0.308,0.781,0.308,1.529
				C79.65,32.067,79.547,32.574,79.342,32.845z M88.428,28.489c-0.389,0-0.788,0.088-1.199,0.264
				c-0.411,0.176-0.755,0.411-1.034,0.704l-0.077-0.825h-0.88v7.558h1.056v-1.508c0.015-0.418,0.007-0.78-0.022-1.089
				c0.572,0.359,1.217,0.539,1.936,0.539c0.704,0,1.221-0.211,1.551-0.633c0.33-0.421,0.495-1.138,0.495-2.15
				C90.254,29.442,89.646,28.489,88.428,28.489z M88.885,32.828c-0.18,0.253-0.5,0.38-0.962,0.38c-0.345,0-0.887-0.096-1.628-0.286
				v-2.728c0.719-0.521,1.309-0.781,1.771-0.781c0.396,0,0.676,0.143,0.841,0.429s0.248,0.785,0.248,1.496
				C89.154,32.079,89.064,32.575,88.885,32.828z M97.115,28.489c-0.932,0-1.592,0.216-1.98,0.648
				c-0.389,0.433-0.583,1.163-0.583,2.189s0.194,1.753,0.583,2.178c0.388,0.426,1.048,0.638,1.98,0.638
				c0.931,0,1.591-0.212,1.98-0.638c0.389-0.425,0.583-1.151,0.583-2.178s-0.194-1.757-0.583-2.189
				C98.706,28.705,98.046,28.489,97.115,28.489z M98.259,32.845c-0.206,0.271-0.587,0.407-1.144,0.407
				c-0.558,0-0.939-0.136-1.144-0.407c-0.206-0.271-0.308-0.777-0.308-1.518c0-0.748,0.103-1.258,0.308-1.529
				c0.205-0.271,0.586-0.407,1.144-0.407c0.557,0,0.938,0.136,1.144,0.407c0.205,0.271,0.308,0.781,0.308,1.529
				C98.567,32.067,98.464,32.574,98.259,32.845z M105.09,29.446l-0.11-0.814h-0.825V34h1.067v-3.894
				c0.865-0.411,1.507-0.616,1.925-0.616h0.33l0.121-1.001h-0.253C106.641,28.489,105.889,28.808,105.09,29.446z M115.145,28.489
				c-0.741,0-1.533,0.322-2.377,0.968l-0.065-0.825H111.8V34h1.067v-3.806c0.484-0.286,0.865-0.491,1.145-0.616
				c0.277-0.125,0.557-0.188,0.836-0.188c0.256,0,0.434,0.064,0.533,0.193c0.099,0.128,0.148,0.36,0.148,0.698V34h1.066v-4.026
				c0-0.483-0.123-0.853-0.368-1.105S115.621,28.489,115.145,28.489z M123.629,28.489c-0.931,0-1.591,0.216-1.979,0.648
				s-0.583,1.163-0.583,2.189s0.194,1.753,0.583,2.178c0.389,0.426,1.049,0.638,1.979,0.638c0.932,0,1.592-0.212,1.98-0.638
				c0.389-0.425,0.583-1.151,0.583-2.178s-0.194-1.757-0.583-2.189S124.561,28.489,123.629,28.489z M124.773,32.845
				c-0.205,0.271-0.587,0.407-1.145,0.407c-0.557,0-0.938-0.136-1.144-0.407c-0.205-0.271-0.308-0.777-0.308-1.518
				c0-0.748,0.103-1.258,0.308-1.529s0.587-0.407,1.144-0.407c0.558,0,0.939,0.136,1.145,0.407s0.309,0.781,0.309,1.529
				C125.082,32.067,124.979,32.574,124.773,32.845z M131.466,26.344h-0.506c-0.206,0-0.308,0.104-0.308,0.309v0.615
				c0,0.213,0.102,0.319,0.308,0.319h0.506c0.205,0,0.308-0.106,0.308-0.319v-0.615C131.773,26.447,131.671,26.344,131.466,26.344z
				 M130.685,34h1.056v-5.368h-1.056V34z M138.056,27.059H137v1.584l-0.979,0.044v0.771H137v3.135c0,0.484,0.119,0.856,0.357,1.117
				c0.238,0.26,0.585,0.39,1.039,0.39c0.506,0,0.928-0.048,1.266-0.143l-0.121-0.825h-0.781c-0.257,0-0.438-0.051-0.545-0.154
				c-0.105-0.103-0.159-0.278-0.159-0.527v-2.992h1.661v-0.825h-1.661V27.059z M146.576,28.489c-0.77,0-1.639,0.084-2.606,0.253
				l0.099,0.781c1.115-0.089,1.873-0.133,2.277-0.133c0.41,0,0.689,0.062,0.836,0.188s0.224,0.352,0.23,0.682v0.418h-2.156
				c-0.483,0-0.857,0.117-1.121,0.353c-0.264,0.234-0.396,0.564-0.396,0.989v0.562c0,0.484,0.148,0.858,0.445,1.122
				s0.695,0.396,1.193,0.396c0.814,0,1.529-0.314,2.146-0.945L147.644,34h0.836v-3.74c0-0.652-0.153-1.11-0.462-1.375
				C147.709,28.621,147.229,28.489,146.576,28.489z M147.412,32.449c-0.572,0.499-1.177,0.748-1.814,0.748
				c-0.271,0-0.47-0.059-0.594-0.176c-0.125-0.118-0.188-0.309-0.188-0.572v-0.286c0-0.22,0.048-0.387,0.143-0.501
				c0.096-0.113,0.261-0.174,0.496-0.181h1.957V32.449z M154.903,33.131c-0.234,0-0.411-0.057-0.528-0.17
				c-0.117-0.114-0.172-0.284-0.164-0.512V26.3h-1.067v6.392c0,0.447,0.121,0.794,0.362,1.039c0.242,0.246,0.572,0.368,0.99,0.368
				c0.47,0,0.811-0.048,1.023-0.143l-0.121-0.825H154.903z M160.496,26.344h-0.506c-0.205,0-0.309,0.104-0.309,0.309v0.615
				c0,0.213,0.104,0.319,0.309,0.319h0.506c0.205,0,0.308-0.106,0.308-0.319v-0.615C160.804,26.447,160.701,26.344,160.496,26.344z
				 M159.715,34h1.057v-5.368h-1.057V34z M168.052,28.489c-0.771,0-1.64,0.084-2.606,0.253l0.099,0.781
				c1.114-0.089,1.874-0.133,2.276-0.133c0.411,0,0.689,0.062,0.836,0.188s0.225,0.352,0.231,0.682v0.418h-2.155
				c-0.484,0-0.858,0.117-1.123,0.353c-0.264,0.234-0.396,0.564-0.396,0.989v0.562c0,0.484,0.148,0.858,0.445,1.122
				s0.694,0.396,1.193,0.396c0.814,0,1.529-0.314,2.146-0.945L169.119,34h0.836v-3.74c0-0.652-0.154-1.11-0.463-1.375
				C169.185,28.621,168.705,28.489,168.052,28.489z M168.888,32.449c-0.571,0.499-1.177,0.748-1.815,0.748
				c-0.271,0-0.469-0.059-0.594-0.176c-0.125-0.118-0.187-0.309-0.187-0.572v-0.286c0-0.22,0.048-0.387,0.143-0.501
				c0.095-0.113,0.261-0.174,0.495-0.181h1.958V32.449z M177.967,28.489c-0.74,0-1.532,0.322-2.375,0.968l-0.066-0.825h-0.902V34
				h1.066v-3.806c0.484-0.286,0.865-0.491,1.145-0.616s0.558-0.188,0.836-0.188c0.257,0,0.435,0.064,0.533,0.193
				c0.1,0.128,0.148,0.36,0.148,0.698V34h1.067v-4.026c0-0.483-0.122-0.853-0.368-1.105S178.443,28.489,177.967,28.489z
				 M184.896,26.344h-0.506c-0.206,0-0.309,0.104-0.309,0.309v0.615c0,0.213,0.103,0.319,0.309,0.319h0.506
				c0.205,0,0.308-0.106,0.308-0.319v-0.615C185.204,26.447,185.102,26.344,184.896,26.344z M184.115,34h1.056v-5.368h-1.056V34z
				 M190.591,32.636h-0.341c-0.146,0-0.25,0.027-0.309,0.083c-0.059,0.055-0.088,0.155-0.088,0.303v0.582
				c0,0.147,0.029,0.25,0.088,0.309S190.104,34,190.25,34h0.341c0.146,0,0.249-0.029,0.308-0.088s0.088-0.161,0.088-0.309v-0.582
				c0-0.147-0.029-0.248-0.088-0.303C190.84,32.663,190.737,32.636,190.591,32.636z M200.473,28.632h-1.144l-1.31,2.167h-0.23
				l-1.32-2.167h-1.144l1.628,2.596L195.193,34h1.154l1.453-2.376h0.209L199.461,34h1.155l-1.761-2.772L200.473,28.632z
				 M209.818,28.632h-1.144l-1.31,2.167h-0.23l-1.32-2.167h-1.144l1.628,2.596L204.539,34h1.154l1.452-2.376h0.21L208.807,34h1.155
				l-1.761-2.772L209.818,28.632z M217.547,31.228l1.617-2.596h-1.144l-1.31,2.167h-0.23l-1.32-2.167h-1.145l1.629,2.596L213.885,34
				h1.154l1.452-2.376h0.209L218.152,34h1.154L217.547,31.228z"/>
		</g>
	</g>
</g>
<g id="Shape_2_1_" enable-background="new    ">
	<g id="Shape_2">
		<g>
			<path fill="#F9001D" d="M35.122,2c2.006,0.64,3.812,1.771,5.252,3.303c1.159,1.233,2.049,2.692,2.626,4.294V2H35.122z"/>
		</g>
	</g>
</g>
<g id="Shape_3_1_" enable-background="new    ">
	<g id="Shape_3">
		<g>
			<path fill="#78B000" d="M39.226,23.963c-1.366,1.192-2.993,2.033-4.76,2.478c0,3.798,0,7.596,0,11.395c2.845,0,5.689,0,8.535,0
				c0-6.826,0-13.651,0-20.478C42.488,19.925,41.188,22.253,39.226,23.963z"/>
		</g>
	</g>
</g>
<g id="Shape_6_1_" enable-background="new    ">
	<g id="Shape_6">
		<g>
			<path fill="#78B000" d="M9.402,26.924l-7.293-4.703c-0.415-0.268-0.95-0.294-1.391-0.068C0.276,22.377,0,22.817,0,23.297v9.405
				c0,0.479,0.276,0.92,0.718,1.146C0.917,33.949,1.136,34,1.354,34c0.264,0,0.529-0.074,0.755-0.222l7.293-4.702
				C9.776,28.835,10,28.432,10,27.999C10,27.568,9.776,27.165,9.402,26.924z"/>
		</g>
	</g>
</g>
<g id="Shape_5_1_" enable-background="new    ">
	<g id="Shape_5">
		<g>
			<path fill="#16171B" d="M23.962,2.33H5.252c3.266,0.139,6.48,1.288,8.699,3.633c1.163,1.229,1.882,2.501,2.298,3.694
				c0.26,0.745,0.426,1.541,0.492,2.416H8.698C8.279,10.13,6.804,8.721,5.089,8.44c-2.305-0.377-4.533,1.342-4.924,3.303
				c-0.149,0.74-0.049,1.567,0.329,2.312c1.062,2.099,3.761,2.55,6.071,3.137c2.158,0.549,4.286,1.321,6.402,2.312
				c2.923,1.891,4.985,5.084,4.923,8.587C17.806,32.81,13.832,37.256,8.206,38h12.802V25.284h4.76
				c8.761,0.367,15.211-4.711,14.935-11.89C40.417,5.971,36.229,2.462,23.962,2.33z M27.408,17.854h-4.759V9.432
				c1.586,0.055,3.173-0.056,4.759,0c3.641-0.263,5.693,0.719,5.745,3.963C33.208,16.802,31.235,17.934,27.408,17.854z"/>
		</g>
	</g>
</g>
</svg>
